<?xml version="1.0" standalone="no"?>
<!DOCTYPE svg PUBLIC "-//W3C//DTD SVG 20010904//EN"
 "http://www.w3.org/TR/2001/REC-SVG-20010904/DTD/svg10.dtd">
<svg version="1.0" xmlns="http://www.w3.org/2000/svg"
 width="1200.000000pt" height="1200.000000pt" viewBox="0 0 1200.000000 1200.000000"
 preserveAspectRatio="xMidYMid meet">
<metadata>
Created by potrace 1.16, written by Peter Selinger 2001-2019
</metadata>
<g transform="translate(0.000000,1200.000000) scale(0.100000,-0.100000)"
fill="#000000" stroke="none">
<path d="M5929 11932 c-35 -38 -80 -88 -99 -113 -19 -24 -40 -51 -47 -59 -11
-12 -38 -47 -91 -115 -24 -32 -79 -106 -92 -125 -8 -12 -23 -33 -32 -45 -10
-13 -18 -28 -18 -33 0 -6 -4 -12 -8 -14 -4 -1 -31 -39 -60 -83 -28 -44 -56
-85 -62 -92 -5 -7 -10 -15 -10 -19 0 -3 -22 -43 -50 -89 -27 -46 -50 -87 -50
-93 0 -6 -3 -12 -7 -14 -10 -4 -143 -271 -143 -286 0 -7 -4 -12 -9 -12 -5 0
-12 -13 -16 -30 -4 -16 -11 -30 -16 -30 -5 0 -9 -6 -9 -12 -1 -7 -9 -31 -20
-53 -11 -22 -19 -46 -20 -52 0 -7 -4 -13 -10 -13 -5 0 -10 -8 -10 -18 0 -10
-6 -26 -14 -37 -7 -11 -17 -35 -21 -52 -3 -18 -10 -33 -15 -33 -4 0 -11 -16
-14 -35 -4 -19 -11 -35 -16 -35 -6 0 -10 -8 -10 -17 0 -10 -7 -31 -15 -47 -8
-15 -15 -33 -15 -40 0 -6 -7 -24 -15 -39 -8 -15 -17 -44 -21 -64 -6 -34 -8
-35 -44 -30 -21 3 -42 1 -47 -3 -8 -8 -71 -19 -128 -23 -16 -1 -33 -5 -36 -9
-3 -5 -33 -10 -67 -12 -34 -3 -70 -10 -81 -15 -11 -6 -28 -11 -39 -11 -18 0
-52 -51 -52 -78 0 -5 -7 -23 -15 -38 -8 -16 -15 -37 -15 -47 0 -16 5 -18 38
-12 64 10 117 32 120 49 2 9 8 16 13 16 6 0 9 7 7 16 -2 10 3 19 11 22 11 3
12 0 6 -14 -17 -42 -17 -54 -2 -54 9 0 18 4 21 9 3 5 37 12 76 16 39 4 73 11
76 16 3 5 23 9 45 9 22 0 38 4 35 8 -3 5 8 6 24 4 17 -2 78 3 137 11 317 46
496 58 923 63 339 3 605 -7 850 -32 142 -14 341 -40 390 -50 14 -3 57 -12 95
-20 39 -8 99 -19 135 -25 36 -6 74 -15 85 -19 21 -9 37 -13 123 -35 52 -13 53
-13 47 8 -13 46 -112 298 -168 427 -49 115 -167 339 -249 477 -276 461 -620
836 -1021 1117 -57 39 -121 80 -142 91 -22 11 -43 23 -46 28 -3 4 -34 -23 -70
-61z"/>
<path d="M5815 9440 c-159 -40 -298 -120 -414 -239 -79 -81 -157 -198 -192
-291 -24 -65 -59 -245 -59 -306 0 -51 28 -231 40 -259 5 -11 12 -31 16 -45 10
-36 65 -148 98 -200 39 -60 158 -177 227 -223 69 -46 169 -97 189 -97 9 0 20
-4 25 -9 6 -6 36 -14 67 -19 56 -9 57 -8 68 19 36 86 168 79 195 -10 9 -32 10
-33 60 -28 54 5 138 23 170 37 279 117 418 256 535 535 50 119 57 360 16 525
-24 91 -98 244 -151 306 -131 156 -297 261 -480 304 -112 26 -308 26 -410 0z
m309 -197 c28 -3 54 -9 57 -15 3 -5 9 -9 13 -8 34 11 88 -30 163 -123 19 -24
53 -91 53 -104 0 -7 4 -13 8 -13 10 0 30 -72 42 -155 10 -66 2 -222 -11 -231
-5 -3 -9 -14 -9 -25 0 -26 -34 -100 -76 -166 -43 -67 -131 -152 -191 -183 -26
-14 -49 -28 -51 -32 -2 -5 -9 -8 -15 -8 -7 0 -25 -7 -41 -15 -26 -14 -174 -38
-221 -37 -59 3 -172 23 -204 37 -69 31 -106 50 -117 60 -6 6 -22 17 -34 25
-46 30 -68 60 -84 112 -9 29 -22 69 -28 88 -14 43 -14 265 -1 283 6 6 13 29
17 49 8 45 31 97 70 157 74 115 191 216 299 258 23 9 47 19 52 23 14 10 76 20
160 26 39 3 72 8 74 10 2 2 8 1 13 -3 6 -3 33 -8 62 -10z m681 -637 c19 -8 35
-18 35 -23 0 -4 -28 -35 -61 -69 -64 -64 -68 -84 -20 -84 41 0 72 30 80 76 8
50 26 46 25 -7 -2 -79 -96 -127 -156 -79 -16 12 -28 25 -28 30 0 5 27 35 61
67 57 54 59 58 39 67 -15 7 -32 6 -53 -2 -38 -14 -46 -8 -22 18 21 24 53 25
100 6z"/>
<path d="M4025 8030 c-4 -6 -16 -10 -28 -10 -12 0 -35 -7 -51 -15 -15 -8 -33
-15 -38 -15 -19 0 -212 -91 -216 -101 -2 -5 -24 -19 -50 -31 -26 -13 -49 -25
-52 -29 -3 -3 -23 -16 -45 -29 -41 -25 -43 -27 -84 -60 -13 -11 -28 -20 -32
-20 -14 0 -243 -234 -274 -280 -16 -25 -32 -47 -35 -50 -20 -20 -127 -233
-135 -269 -3 -17 -10 -31 -15 -31 -4 0 -11 -21 -15 -46 -4 -26 -11 -54 -16
-63 -8 -15 -16 -58 -39 -201 -19 -125 -10 -387 24 -675 24 -196 26 -206 79
-258 26 -25 47 -52 47 -59 0 -6 -21 8 -46 32 l-46 45 5 -30 c3 -16 13 -61 22
-100 9 -38 21 -95 28 -125 7 -30 15 -60 19 -65 3 -6 9 -28 13 -50 4 -22 11
-44 15 -50 4 -5 11 -29 15 -52 4 -24 10 -45 15 -48 4 -3 11 -20 14 -39 4 -20
13 -48 21 -63 8 -15 15 -36 15 -45 0 -9 4 -19 9 -22 5 -3 12 -18 16 -33 3 -16
14 -36 23 -46 15 -17 16 -16 28 13 7 16 20 30 29 30 14 0 14 -4 0 -36 -8 -20
-15 -38 -15 -40 0 -1 23 -29 50 -60 45 -52 62 -84 43 -84 -4 0 -29 21 -57 48
-27 26 -47 43 -44 37 38 -87 103 -220 109 -225 3 -3 16 -27 30 -55 13 -27 26
-52 29 -55 8 -8 29 -43 42 -70 7 -14 18 -31 25 -38 7 -7 13 -20 13 -28 0 -8 5
-14 10 -14 6 0 15 -10 20 -22 15 -34 33 -62 48 -71 6 -4 12 -12 12 -18 0 -10
60 -94 110 -155 14 -17 39 -48 55 -69 17 -21 37 -45 45 -54 8 -10 47 -53 85
-96 83 -95 142 -151 260 -250 26 -22 56 -48 66 -57 11 -10 21 -18 23 -18 2 0
6 51 9 113 4 111 19 224 37 282 46 151 73 234 91 273 60 137 132 267 217 391
47 68 47 68 93 121 32 38 33 48 5 145 -60 206 -112 406 -133 509 -4 18 -1 31
8 37 11 7 11 9 -3 9 -10 0 -22 9 -28 20 -12 23 -85 302 -145 555 -36 152 -45
192 -55 235 -5 25 -18 86 -30 135 -82 361 -152 749 -185 1025 -16 129 -36 450
-29 461 2 4 -3 9 -11 13 -8 3 -17 1 -20 -4z"/>
<path d="M7927 8033 c-4 -3 -7 -60 -7 -125 0 -269 -102 -922 -225 -1433 -8
-33 -23 -103 -35 -155 -18 -79 -83 -344 -159 -639 -13 -53 -22 -68 -46 -82
-16 -10 -37 -18 -45 -18 -8 -1 -27 -7 -42 -15 -15 -8 -41 -17 -59 -21 -19 -4
-40 -11 -49 -15 -38 -19 -68 -30 -110 -39 -97 -21 -216 -52 -230 -60 -9 -5
-40 -12 -70 -16 -30 -3 -72 -11 -92 -16 -113 -29 -482 -57 -758 -58 -300 -1
-503 13 -720 50 -30 5 -93 15 -140 21 -47 6 -87 14 -90 18 -3 4 -31 10 -62 14
-32 4 -60 11 -63 16 -3 5 -30 12 -60 15 -30 4 -55 11 -55 16 0 5 -10 9 -21 9
-16 0 -19 -3 -11 -12 5 -7 13 -33 17 -58 4 -25 11 -49 15 -55 4 -5 10 -25 14
-44 8 -44 23 -61 52 -61 13 0 24 -4 24 -9 0 -5 29 -12 65 -16 36 -3 65 -10 65
-15 0 -5 14 -8 32 -8 18 1 34 -4 36 -10 2 -7 7 -10 12 -7 4 3 19 1 32 -4 12
-6 17 -10 11 -10 -16 -1 -17 -51 -2 -51 7 0 9 -10 7 -25 -3 -14 -1 -25 3 -25
5 0 9 -11 9 -24 0 -14 5 -28 11 -32 6 -3 9 -15 6 -25 -3 -11 -1 -19 4 -19 5 0
9 -11 9 -24 0 -14 5 -28 11 -32 6 -3 9 -15 6 -25 -3 -11 -1 -19 4 -19 5 0 9
-11 9 -25 0 -14 5 -25 11 -25 5 0 9 -8 8 -17 -2 -18 4 -40 23 -80 6 -11 7 -26
4 -32 -4 -6 -2 -11 3 -11 6 0 11 -11 11 -25 0 -14 5 -25 11 -25 6 0 9 -9 6
-20 -3 -11 -1 -20 4 -20 5 0 9 -11 9 -25 0 -14 5 -25 10 -25 6 0 10 -8 10 -17
1 -10 9 -36 20 -58 11 -22 19 -48 20 -57 0 -10 5 -18 11 -18 6 0 9 -7 5 -15
-3 -8 -1 -15 4 -15 6 0 10 -7 10 -15 0 -8 3 -15 8 -15 7 0 16 -15 46 -75 19
-40 133 -157 184 -189 22 -14 52 -28 66 -32 14 -3 26 -10 26 -15 0 -5 11 -9
24 -9 14 0 28 -5 32 -11 4 -8 -9 -9 -47 -6 -30 4 -111 8 -180 10 -69 2 -148 9
-175 15 -27 6 -85 16 -129 22 -44 5 -91 12 -105 15 -14 3 -43 8 -65 11 -22 4
-44 10 -50 14 -17 13 -105 22 -105 11 0 -40 19 -56 86 -73 38 -10 96 -20 130
-24 58 -6 61 -7 56 -31 -3 -14 -1 -28 4 -32 5 -3 20 -27 33 -53 14 -26 29 -45
33 -42 4 3 8 -1 8 -9 0 -14 41 -57 55 -57 4 0 -4 11 -19 25 -14 13 -26 29 -26
34 0 6 -7 14 -16 19 -9 5 -17 23 -18 39 -1 17 -6 29 -12 26 -6 -2 -15 7 -22
21 -10 23 -9 24 26 29 20 2 41 0 46 -4 6 -5 33 -9 62 -9 51 0 53 -1 74 -42 30
-61 43 -80 64 -100 10 -10 15 -18 11 -18 -14 0 101 -78 161 -110 32 -16 66
-30 76 -30 32 0 29 -19 -4 -23 -33 -4 -33 -4 5 -5 24 -1 37 2 37 11 0 6 6 0
14 -15 15 -29 30 -226 46 -613 31 -735 36 -791 75 -849 47 -70 96 -29 120 101
8 43 19 191 25 328 31 726 40 915 46 961 l6 51 106 7 c58 3 149 6 204 6 205 0
361 46 446 131 40 39 112 150 112 172 0 7 7 25 15 40 8 15 17 45 20 65 4 20
15 59 26 85 27 65 167 518 225 730 10 37 22 67 26 67 8 0 109 -132 160 -210
63 -97 145 -255 199 -385 60 -143 109 -385 109 -539 l0 -97 63 48 c138 106
378 361 533 568 339 452 583 1022 678 1590 43 260 50 348 51 640 0 312 -4 347
-61 530 -118 375 -449 717 -859 889 -49 20 -99 41 -110 46 -21 9 -121 40 -128
40 -2 0 -7 -3 -10 -7z m-1963 -3692 c8 -13 8 -1891 0 -1893 -13 -5 -44 70 -44
107 0 17 -5 136 -11 265 -6 129 -13 280 -15 335 -15 458 -24 684 -33 830 -15
253 2 346 63 358 11 2 24 5 28 6 4 0 9 -3 12 -8z"/>
<path d="M5925 7440 c-75 -15 -169 -51 -220 -86 -66 -43 -166 -148 -194 -201
-58 -115 -66 -151 -66 -294 0 -85 5 -142 12 -150 6 -8 14 -28 17 -46 29 -131
216 -320 347 -348 19 -4 40 -12 48 -19 20 -16 296 -15 313 2 6 6 19 12 27 12
9 0 36 11 61 23 257 127 374 386 309 686 -26 118 -123 258 -229 328 -123 82
-293 119 -425 93z m236 -164 c53 -22 81 -60 136 -181 22 -48 25 -237 5 -257
-7 -7 -12 -19 -12 -28 0 -28 -80 -138 -123 -169 -23 -17 -47 -35 -54 -40 -6
-6 -24 -13 -40 -17 -15 -4 -31 -12 -35 -18 -11 -16 -250 -15 -255 2 -3 6 -12
12 -21 12 -24 0 -93 38 -118 66 -12 12 -32 53 -44 89 -19 56 -21 79 -16 153 4
47 10 89 14 92 4 3 9 14 10 25 2 11 8 22 13 23 5 2 7 7 4 12 -8 13 67 116 115
155 47 39 103 69 172 90 53 17 201 11 249 -9z"/>
</g>
</svg>
