<?xml version="1.0" standalone="no"?>
<!DOCTYPE svg PUBLIC "-//W3C//DTD SVG 20010904//EN"
 "http://www.w3.org/TR/2001/REC-SVG-20010904/DTD/svg10.dtd">
<svg version="1.0" xmlns="http://www.w3.org/2000/svg"
 width="736.000000pt" height="638.000000pt" viewBox="0 0 736.000000 638.000000"
 preserveAspectRatio="xMidYMid meet">
<metadata>
Created by potrace 1.16, written by Peter Selinger 2001-2019
</metadata>
<g transform="translate(0.000000,638.000000) scale(0.100000,-0.100000)"
fill="#000000" stroke="none">
<path d="M3699 6043 c-3 -17 -10 -80 -15 -118 -3 -22 -5 -57 -5 -77 -1 -21 -5
-38 -10 -38 -4 0 -7 -22 -5 -50 1 -27 -1 -47 -5 -44 -4 2 -6 -21 -4 -51 2 -30
-1 -53 -5 -50 -5 3 -7 -22 -5 -56 2 -34 1 -69 -4 -78 -5 -9 -11 -36 -14 -61
-5 -33 -4 -40 4 -25 8 17 8 16 3 -5 -4 -14 -8 -47 -8 -75 -1 -27 -4 -59 -8
-70 -11 -36 -19 -102 -8 -80 8 18 9 18 9 -5 1 -15 -5 -32 -11 -38 -10 -10 -10
-15 -1 -20 8 -5 9 -13 3 -22 -13 -20 -13 -103 -1 -95 6 3 10 -23 9 -62 0 -48
-3 -62 -9 -48 -6 13 -7 -5 -3 -50 3 -38 6 -88 8 -110 8 -120 9 -122 17 -45 5
41 13 185 18 320 5 135 12 274 15 310 3 36 8 103 11 150 21 339 36 548 40 567
3 12 1 25 -5 28 -5 3 -11 3 -11 -2z"/>
<path d="M3457 5853 c-149 -248 -234 -581 -241 -946 -3 -142 -4 -149 -28 -175
-64 -70 -102 -157 -113 -260 -12 -110 -14 -138 -21 -292 -7 -148 -1 -250 14
-250 4 0 37 27 74 59 36 32 101 80 143 106 62 39 79 45 86 34 14 -22 11 -7
-11 57 -12 32 -30 95 -41 139 -11 44 -28 96 -36 115 -17 37 -18 54 -29 372 -7
218 0 305 47 536 35 173 86 330 149 460 27 53 47 98 45 100 -1 2 -19 -23 -38
-55z"/>
<path d="M3840 5895 c0 -2 21 -45 46 -96 59 -118 117 -294 156 -477 27 -131
31 -169 34 -347 2 -113 -2 -243 -8 -298 -9 -78 -9 -100 1 -106 17 -11 -5 -141
-25 -141 -7 0 -16 -16 -20 -37 -3 -21 -20 -85 -36 -143 -45 -156 -43 -149 -26
-126 15 19 18 18 89 -26 41 -26 107 -75 147 -109 40 -34 76 -58 80 -55 17 18
4 461 -17 571 -20 100 -64 189 -120 239 -19 18 -21 29 -21 146 0 259 -60 574
-149 781 -49 112 -131 254 -131 224z"/>
<path d="M3706 4273 c-9 -72 0 -137 21 -158 13 -13 12 -15 -5 -15 -11 0 -23 6
-25 13 -3 6 -6 -2 -6 -20 -1 -18 -8 -53 -17 -79 -11 -33 -13 -49 -5 -57 8 -8
11 -2 11 21 0 29 3 32 33 32 17 0 49 -3 69 -6 33 -6 39 -11 48 -43 24 -85 3
-199 -55 -311 -36 -66 -86 -130 -103 -130 -14 0 -78 99 -106 163 -13 28 -29
77 -36 108 -14 64 -10 183 8 201 6 6 37 13 68 16 l56 5 -6 30 c-3 16 -6 36 -6
45 0 13 -14 14 -92 9 -97 -7 -138 -14 -138 -26 0 -4 16 -26 35 -48 30 -35 33
-44 26 -70 -17 -59 -22 -149 -12 -213 20 -120 160 -400 201 -400 18 0 103 126
147 216 26 54 52 102 57 106 16 11 20 203 6 269 -13 60 -13 60 18 104 l31 44
-50 10 c-28 6 -61 11 -74 11 -20 0 -27 10 -45 58 -12 31 -28 84 -35 117 l-12
60 -7 -62z"/>
<path d="M3734 1655 c-98 -21 -172 -62 -250 -140 -101 -99 -154 -221 -154
-351 l0 -46 -37 30 c-73 57 -102 67 -193 67 -70 0 -93 -4 -130 -23 -58 -30
-95 -66 -128 -121 -35 -59 -43 -179 -17 -248 25 -66 89 -131 160 -164 l60 -28
-360 0 c-200 0 -380 4 -405 10 -25 5 -166 12 -315 15 -304 6 -360 15 -475 72
-83 41 -192 137 -237 208 l-28 44 -55 -5 c-30 -2 -111 -7 -180 -10 -281 -14
-465 -48 -541 -101 -142 -98 -161 -300 -40 -424 82 -84 192 -110 567 -134 680
-44 1271 -56 2689 -56 1409 0 2039 13 2691 55 249 16 340 28 434 56 136 40
213 139 213 274 0 141 -92 247 -245 284 -80 19 -283 39 -508 50 -118 6 -243
13 -277 15 l-62 5 -27 -47 c-69 -118 -216 -232 -358 -279 -73 -24 -98 -27
-266 -30 l-185 -3 40 21 c97 52 141 126 133 228 -8 110 -85 188 -197 198 -61
6 -61 6 -67 42 -24 149 -108 261 -243 325 -62 29 -73 31 -181 31 -112 0 -117
-1 -188 -37 l-72 -36 -30 42 c-72 105 -192 185 -318 212 -82 17 -138 17 -218
-1z"/>
</g>
</svg>
