<?xml version="1.0" standalone="no"?>
<!DOCTYPE svg PUBLIC "-//W3C//DTD SVG 20010904//EN"
 "http://www.w3.org/TR/2001/REC-SVG-20010904/DTD/svg10.dtd">
<svg version="1.0" xmlns="http://www.w3.org/2000/svg"
 width="712.000000pt" height="512.000000pt" viewBox="0 0 712.000000 512.000000"
 preserveAspectRatio="xMidYMid meet">
<metadata>
Created by potrace 1.16, written by Peter Selinger 2001-2019
</metadata>
<g transform="translate(0.000000,512.000000) scale(0.100000,-0.100000)"
fill="#000000" stroke="none">
<path d="M3391 4450 c-342 -72 -615 -331 -704 -670 l-22 -85 0 -1145 0 -1145
28 -88 c67 -215 192 -390 361 -507 70 -48 202 -107 291 -131 113 -31 317 -31
430 0 260 69 470 240 589 478 61 122 87 229 93 382 l6 134 -877 -7 c-482 -4
-876 -4 -876 1 0 4 117 125 260 268 l260 260 94 -94 94 -94 6 89 c4 49 11 136
16 194 14 152 13 226 -6 262 -15 30 -15 32 2 45 34 25 4 26 -133 5 -102 -16
-141 -18 -151 -10 -10 9 -11 13 0 19 7 5 8 9 2 9 -14 0 -14 30 0 30 7 0 6 4
-1 8 -10 7 -10 12 0 26 12 16 20 16 151 -3 168 -25 163 -25 169 -1 4 16 12 19
56 16 29 -2 54 -6 57 -9 15 -14 -12 -27 -59 -28 -29 -1 -42 -4 -29 -6 27 -5
19 -23 -11 -24 -51 -1 19 -18 80 -18 62 -1 91 12 51 22 -12 4 -20 9 -16 12 6
6 322 53 351 52 9 0 17 -7 17 -14 0 -8 -5 -11 -12 -8 -7 4 -6 1 2 -7 20 -17
27 -46 8 -30 -11 8 -14 7 -14 -7 0 -11 6 -17 13 -14 9 4 11 0 7 -11 -3 -9 -10
-14 -14 -11 -5 3 -10 1 -12 -4 -2 -6 -57 -2 -138 10 -93 14 -136 17 -138 10
-2 -6 -28 -11 -58 -11 -30 0 -54 -4 -54 -10 0 -5 16 -10 36 -10 31 0 35 -3 29
-17 -4 -10 -10 -44 -13 -75 l-4 -57 -52 -3 -51 -3 -3 -82 -4 -83 61 0 61 0 0
-70 0 -70 -64 0 -63 0 -2 -95 -2 -95 71 0 70 0 0 -62 0 -63 41 41 41 42 -13
177 -12 176 56 57 57 57 330 -330 330 -330 -2 1005 c-3 1005 -3 1005 -26 1085
-47 169 -162 354 -283 456 -111 93 -196 141 -329 184 -74 24 -104 28 -235 31
-82 2 -170 -1 -194 -6z"/>
</g>
</svg>
